<svg width="18" height="18" viewBox="0 0 18 18" fill="none" xmlns="http://www.w3.org/2000/svg">
<g clip-path="url(#clip0_2672_4122)">
<path d="M11.1193 9.95716C11.9445 9.88496 12.6721 10.4955 12.7443 11.3207C12.8165 12.146 12.206 12.8735 11.3808 12.9457C10.5555 13.0179 9.82793 12.4074 9.75573 11.5822C9.68353 10.7569 10.294 10.0294 11.1193 9.95716Z" fill="black"/>
<path fill-rule="evenodd" clip-rule="evenodd" d="M5.44766 1.75384C5.80528 1.72255 6.12061 1.98777 6.15197 2.34623L6.20923 3.00077C6.59255 2.96167 7.00797 2.92533 7.45645 2.8861L8.84621 2.76451C9.2947 2.72527 9.71011 2.68892 10.0944 2.66086L10.0371 2.00632C10.0058 1.64787 10.2702 1.33192 10.6279 1.30063C10.9855 1.26934 11.3008 1.53456 11.3322 1.89302L11.3945 2.6051C11.5125 2.60554 11.6263 2.60817 11.736 2.6133C12.5223 2.65004 13.1963 2.81683 13.7614 3.29226C14.3267 3.76767 14.6076 4.40397 14.7802 5.17377C14.9465 5.91523 15.03 6.86916 15.1335 8.05264L15.2554 9.44565C15.3589 10.6291 15.4424 11.5831 15.4074 12.3422C15.3711 13.1302 15.2049 13.8056 14.7308 14.372C14.2567 14.9383 13.622 15.2196 12.8541 15.3924C12.1143 15.5587 11.1626 15.6419 9.98188 15.7452L8.59212 15.8668C7.41137 15.9701 6.45966 16.0534 5.70232 16.0181C4.91603 15.9813 4.2421 15.8145 3.67686 15.3391C3.11161 14.8637 2.83071 14.2274 2.65808 13.4576C2.4918 12.7161 2.40837 11.7622 2.30484 10.5787L2.18296 9.18566C2.07941 8.00218 1.99593 7.04824 2.03093 6.28919C2.06726 5.50111 2.23341 4.8257 2.70751 4.25935C3.18161 3.69299 3.81633 3.41171 4.5843 3.23899C4.69147 3.21489 4.80309 3.19254 4.91922 3.17161L4.85692 2.45953C4.82556 2.10108 5.09004 1.78513 5.44766 1.75384ZM3.36064 7.62475C3.38926 8.05442 3.43208 8.54723 3.48218 9.11984L3.59574 10.4179C3.70442 11.6601 3.78159 12.5263 3.92646 13.1723C4.06719 13.7999 4.2524 14.1225 4.5123 14.3411C4.77221 14.5597 5.12135 14.6865 5.76234 14.7165C6.42217 14.7473 7.28662 14.6731 8.52591 14.5646L9.82096 14.4513C11.0603 14.3429 11.9245 14.2659 12.569 14.121C13.195 13.9801 13.5168 13.7947 13.7348 13.5342C13.9528 13.2738 14.0792 12.9239 14.1088 12.2815C14.1392 11.6201 14.0648 10.7537 13.9562 9.51146L13.8426 8.21342C13.7925 7.64081 13.7491 7.14805 13.7027 6.71993L3.36064 7.62475Z" fill="black"/>
</g>
<defs>
<clipPath id="clip0_2672_4122">
<rect width="16" height="16" fill="white" transform="translate(0 1.39453) rotate(-5)"/>
</clipPath>
</defs>
</svg>
