<svg width="22" height="22" viewBox="0 0 22 22" fill="none" xmlns="http://www.w3.org/2000/svg">
<g clip-path="url(#clip0_2672_4101)">
<path d="M3.05469 11.624C2.36433 10.4283 2.77402 8.89934 3.96975 8.20898C5.16548 7.51863 6.69446 7.92832 7.38481 9.12405C8.07517 10.3198 7.66548 11.8488 6.46975 12.5391C5.27402 13.2295 3.74504 12.8198 3.05469 11.624Z" fill="black"/>
<path d="M7.8763 17.3098C7.00184 15.7952 7.52079 13.8585 9.03538 12.984C10.55 12.1096 12.4867 12.6285 13.3611 14.1431C14.2356 15.6578 13.7167 17.5944 12.202 18.4689C10.6875 19.3433 8.75077 18.8244 7.8763 17.3098Z" fill="black"/>
<path opacity="0.4" d="M8.82682 8.29144C7.76828 6.45799 8.39649 4.11355 10.2299 3.05501C12.0634 1.99648 14.4078 2.62465 15.4664 4.45811C16.5249 6.29154 15.8967 8.63601 14.0633 9.69454C12.2298 10.7531 9.88536 10.1249 8.82682 8.29144Z" fill="black"/>
</g>
<defs>
<clipPath id="clip0_2672_4101">
<rect width="16" height="16" fill="white" transform="translate(0 8) rotate(-30)"/>
</clipPath>
</defs>
</svg>
