<svg width="19" height="19" viewBox="0 0 19 19" fill="none" xmlns="http://www.w3.org/2000/svg">
  <g>
    <path fill-rule="evenodd" clip-rule="evenodd" d="M13.0002 10.7907C12.8119 11.1071 12.9158 11.5162 13.2321 11.7046L14.6236 12.5327C14.9006 12.6975 15.0678 12.7984 15.1776 12.8796C15.1022 12.9935 14.9796 13.1454 14.7757 13.3951L13.7513 14.6491C13.5185 14.9343 13.5608 15.3543 13.8459 15.5872C14.1311 15.8201 14.5511 15.7777 14.784 15.4926L15.8083 14.2385C15.8165 14.2285 15.8245 14.2186 15.8326 14.2088C16.0269 13.971 16.2132 13.743 16.3388 13.5381C16.4766 13.3133 16.6116 13.0074 16.5465 12.6382C16.4814 12.269 16.25 12.0277 16.0435 11.8636C15.8554 11.714 15.6024 11.5635 15.3385 11.4065C15.3275 11.4 15.3166 11.3935 15.3055 11.3869L13.9141 10.5587C13.5976 10.3705 13.1885 10.4743 13.0002 10.7907Z" fill="black"/>
    <path fill-rule="evenodd" clip-rule="evenodd" d="M11.3707 11.0776C11.6558 11.3105 11.6982 11.7305 11.4653 12.0157L10.441 13.2698C10.237 13.5194 10.1145 13.6713 10.039 13.7852C10.1489 13.8664 10.316 13.9673 10.593 14.1322L11.9845 14.9602C12.3009 15.1486 12.4047 15.5577 12.2165 15.8741C12.0281 16.1905 11.619 16.2943 11.3026 16.1061L9.9111 15.2779C9.90006 15.2713 9.88909 15.2648 9.87812 15.2583C9.61426 15.1013 9.36121 14.9508 9.17311 14.8012C8.96668 14.6371 8.7352 14.3958 8.67009 14.0266C8.60499 13.6574 8.73999 13.3515 8.87784 13.1267C9.00344 12.9218 9.18975 12.6938 9.38401 12.456C9.39209 12.4461 9.40016 12.4363 9.40829 12.4263L10.4326 11.1722C10.6656 10.8871 11.0855 10.8447 11.3707 11.0776Z" fill="black"/>
    <path d="M7.07739 16.7771C7.73417 16.7308 7.44715 16.7815 8.45895 16.6031C8.81331 16.5406 9.04992 16.2027 8.98744 15.8483C8.92495 15.4939 8.58703 15.2573 8.23267 15.3198C7.17655 15.5061 7.56623 15.4365 6.98486 15.4774C6.41389 15.5176 6.07688 15.4642 5.81265 15.3394C5.63437 15.2553 5.47165 15.1479 5.32895 15.0211C5.12382 14.839 4.96247 14.5744 4.81084 14.0686C4.65478 13.5479 4.53134 12.854 4.35497 11.8537L4.01918 9.94965C3.98825 9.77435 3.91444 9.35507 4.04402 9.01263C4.12387 8.80155 4.2411 8.61631 4.37609 8.50869C4.59362 8.33526 4.85637 8.21219 5.14962 8.16048L5.83689 8.064C6.08735 8.02518 6.37716 7.96596 6.64498 7.84107C7.16664 7.59781 7.51891 7.09473 7.56907 6.52132C7.59481 6.22695 7.55134 5.93436 7.50215 5.68573L7.35775 5.00692C7.30361 4.69986 7.33815 4.41816 7.43708 4.14455C7.49472 3.98506 7.61625 3.82696 7.79584 3.67526C8.06809 3.44522 8.43113 3.37952 8.653 3.33937C8.8748 3.29923 9.10891 3.25716 9.30463 3.22265C10.5088 3.01032 10.9484 2.94225 11.2994 3.00041C11.9079 3.10125 12.4192 3.44545 12.7137 3.92517C12.7875 4.0453 12.8534 4.2086 12.9246 4.4993C12.9971 4.79564 13.065 5.17832 13.1622 5.72998L13.7542 9.08695C13.8164 9.43997 14.1531 9.67568 14.5061 9.61343C14.8592 9.55117 15.0949 9.21452 15.0327 8.8615L14.4369 5.48275C14.3444 4.95807 14.2694 4.53293 14.1855 4.18991C14.0989 3.83648 13.9931 3.52637 13.819 3.24285C13.3168 2.42476 12.4693 1.87404 11.5094 1.71498C10.9105 1.61574 9.94408 1.78641 8.92322 1.96678C7.05887 2.29527 5.9515 2.49039 5.10026 2.97021C3.73329 3.74074 2.76126 5.03773 2.45482 6.53777C2.35268 7.03775 2.35945 7.55422 2.42603 8.16315C2.49144 8.76134 2.62024 9.49181 2.78443 10.423L3.08351 12.1191C3.25114 13.0699 3.38688 13.8398 3.56754 14.4425C3.75514 15.0683 4.01184 15.5903 4.46919 15.9964C4.70611 16.2068 4.97301 16.3823 5.26126 16.5183C5.81119 16.7779 6.40245 16.8246 7.07739 16.7771Z" fill="black"/>
  </g>
</svg>
