<svg width="21" height="21" viewBox="0 0 21 21" fill="none" xmlns="http://www.w3.org/2000/svg">
<g clip-path="url(#clip0_2672_4110)">
<path fill-rule="evenodd" clip-rule="evenodd" d="M4.89598 5.28662C4.77005 4.94064 4.94845 4.55807 5.29443 4.43214L10.3061 2.60804C10.6521 2.4821 11.0347 2.6605 11.1606 3.00648C11.2865 3.35247 11.1081 3.73503 10.7622 3.86096L5.75046 5.68507C5.40448 5.81099 5.02191 5.6326 4.89598 5.28662Z" fill="black"/>
<path fill-rule="evenodd" clip-rule="evenodd" d="M6.25454 4.08368C6.59092 3.96125 6.96338 4.1361 7.08645 4.47422L7.64046 5.99635L7.67073 6.07952C8.03149 7.07032 8.25259 7.67759 8.3175 8.32082C8.3752 8.89258 8.30639 9.46222 8.18126 10.3167C8.73645 10.1989 9.48942 10.3115 10.3257 10.4544C11.6361 10.6783 12.37 10.2537 12.7228 9.71829L12.1977 9.25281L12.1314 9.19401C11.3404 8.49281 10.856 8.06343 10.4925 7.52921C10.1287 6.99473 9.90774 6.38742 9.54723 5.39653L9.51696 5.31336L8.96295 3.79123C8.83988 3.45311 9.01282 3.07975 9.34916 2.95733C9.68551 2.83491 10.058 3.00976 10.181 3.34788L10.735 4.87001C11.1354 5.96989 11.3018 6.41383 11.5626 6.797C11.8236 7.18044 12.1766 7.49955 13.0545 8.27791L14.255 9.34231C15.3069 10.275 16.1527 11.0249 16.702 11.6803C17.264 12.351 17.6368 13.064 17.4757 13.898L17.4752 13.9007L17.4719 13.9174L17.4713 13.9202C17.3038 14.7485 16.6914 15.2701 15.9184 15.6868C15.1603 16.0955 14.0905 16.4848 12.7566 16.9704L12.6517 17.0085C11.3178 17.494 10.248 17.8834 9.40456 18.0577C8.54457 18.2353 7.74021 18.2294 7.0794 17.7026L7.07717 17.7008L7.06394 17.6901L7.06175 17.6883C6.40221 17.153 6.22959 16.3671 6.229 15.4922C6.2284 14.6369 6.39431 13.5188 6.60064 12.1283L6.83609 10.5412C7.00829 9.38066 7.07359 8.9093 7.02702 8.44782C6.98048 7.98668 6.82265 7.53959 6.42233 6.43971L5.86832 4.91758C5.74525 4.57946 5.91817 4.20611 6.25454 4.08368ZM8.74029 13.8288C8.52951 13.527 8.60191 13.1117 8.90197 12.901L8.90686 12.8976C9.20695 12.687 9.62105 12.7608 9.83184 13.0626C10.0426 13.3644 9.97023 13.7797 9.67016 13.9904L9.66527 13.9938C9.36519 14.2044 8.95106 14.1305 8.74029 13.8288ZM13.1167 12.7859C12.8166 12.9966 12.7443 13.4119 12.955 13.7137C13.1658 14.0154 13.5799 14.0893 13.88 13.8787L13.8849 13.8753C14.185 13.6646 14.2573 13.2493 14.0466 12.9475C13.8358 12.6457 13.4217 12.5719 13.1216 12.7825L13.1167 12.7859Z" fill="black"/>
</g>
<defs>
<clipPath id="clip0_2672_4110">
<rect width="16" height="16" fill="white" transform="translate(0 5.47266) rotate(-20)"/>
</clipPath>
</defs>
</svg>
