<svg width="20" height="20" viewBox="0 0 20 20" fill="none" xmlns="http://www.w3.org/2000/svg">
<path fill-rule="evenodd" clip-rule="evenodd" d="M10.0013 2.29199C10.5766 2.29199 11.043 2.75836 11.043 3.33366V8.95866H16.668C17.2433 8.95866 17.7096 9.42499 17.7096 10.0003C17.7096 10.5757 17.2433 11.042 16.668 11.042H11.043V16.667C11.043 17.2423 10.5766 17.7087 10.0013 17.7087C9.42597 17.7087 8.95964 17.2423 8.95964 16.667V11.042H3.33464C2.75934 11.042 2.29297 10.5757 2.29297 10.0003C2.29297 9.42499 2.75934 8.95866 3.33464 8.95866H8.95964V3.33366C8.95964 2.75836 9.42597 2.29199 10.0013 2.29199Z" fill="black"/>
</svg>
