<svg width="16" height="16" viewBox="0 0 16 16" fill="none" xmlns="http://www.w3.org/2000/svg">
<path fill-rule="evenodd" clip-rule="evenodd" d="M4.33333 1.5C2.76853 1.5 1.5 2.76853 1.5 4.33333C1.5 5.89814 2.76853 7.16667 4.33333 7.16667H11.6667C13.2315 7.16667 14.5 5.89814 14.5 4.33333C14.5 2.76853 13.2315 1.5 11.6667 1.5H4.33333ZM4.33333 6C5.25381 6 6 5.25381 6 4.33333C6 3.41286 5.25381 2.66667 4.33333 2.66667C3.41285 2.66667 2.66667 3.41286 2.66667 4.33333C2.66667 5.25381 3.41285 6 4.33333 6Z" fill="black"/>
<path fill-rule="evenodd" clip-rule="evenodd" d="M4.33333 8.83301C2.76853 8.83301 1.5 10.1015 1.5 11.6663C1.5 13.2311 2.76853 14.4997 4.33333 14.4997H11.6667C13.2315 14.4997 14.5 13.2311 14.5 11.6663C14.5 10.1015 13.2315 8.83301 11.6667 8.83301H4.33333ZM11.6667 13.333C12.5871 13.333 13.3333 12.5868 13.3333 11.6663C13.3333 10.7459 12.5871 9.99967 11.6667 9.99967C10.7462 9.99967 10 10.7459 10 11.6663C10 12.5868 10.7462 13.333 11.6667 13.333Z" fill="black"/>
</svg>
